<svg id="Layer_1" xmlns="http://www.w3.org/2000/svg" width="155" height="60" viewBox="0 0 155 60"><style>.st0{fill:#32CB64;} .st1{fill:#21293F;} .st2{fill:#E5E5E5;}</style><path class="st0" d="M47 48c-1 0-1.9-.5-2.5-1.3l-9.4-14 8.7-8.7c1.2-1.2 3.1-1.2 4.2 0 1.2 1.2 1.2 3.1 0 4.2l-5.3 5.3 6.6 10c.9 1.4.5 3.2-.8 4.2-.3.1-.9.3-1.5.3zM31 48c-1.7 0-3-1.3-3-3V16c0-1.7 1.3-3 3-3s3 1.3 3 3v29c0 1.7-1.3 3-3 3zM22 48c-1.7 0-3-1.3-3-3V26c0-1.7 1.3-3 3-3s3 1.3 3 3v19c0 1.7-1.3 3-3 3zM13 48c-1.7 0-3-1.3-3-3v-9c0-1.7 1.3-3 3-3s3 1.3 3 3v9c0 1.7-1.3 3-3 3z"/><g><path class="st1" d="M94.2 31.1c0 .4-.1.7-.4 1-.3.3-.6.4-1 .4s-.7-.1-1-.4c-.3-.3-.4-.6-.4-1v-7.7c0-.4-.1-.8-.3-1.2-.2-.4-.4-.7-.7-1-.3-.3-.6-.5-1-.7-.4-.2-.8-.3-1.3-.3-.4 0-.9.1-1.2.3s-.7.4-1 .7c-.3.3-.5.6-.7 1-.2.4-.3.8-.3 1.2v7.7c0 .4-.1.7-.4 1-.3.3-.6.4-1 .4s-.7-.1-1-.4-.4-.6-.4-1v-7.7c0-.4-.1-.9-.3-1.2-.2-.4-.4-.7-.7-1-.3-.3-.6-.5-1-.7s-.8-.3-1.2-.3c-.4 0-.9.1-1.2.3-.4.2-.7.4-1 .7-.3.3-.5.6-.7 1-.2.4-.3.8-.3 1.2v7.7c0 .4-.1.7-.4 1-.3.3-.6.4-1 .4s-.7-.1-1-.4-.4-.6-.4-1V18.7c0-.4.1-.7.4-1s.6-.4 1-.4c.3 0 .6.1.8.3s.4.4.5.7c1-.6 2.1-1 3.3-1 .9 0 1.8.2 2.5.5.8.4 1.5.9 2.1 1.6 1.3-1.4 2.8-2.2 4.6-2.2.8 0 1.6.2 2.3.5.7.3 1.4.8 1.9 1.3s1 1.2 1.3 1.9c.3.7.5 1.5.5 2.3v7.9zM109 31.1v-.3c-.7.5-1.4 1-2.2 1.2-.8.3-1.6.4-2.5.4-2.1 0-3.9-.7-5.4-2.2-1.5-1.5-2.2-3.3-2.2-5.4 0-2.1.7-3.9 2.2-5.4 1.5-1.5 3.3-2.2 5.4-2.2 2.1 0 3.9.7 5.4 2.2 1.5 1.5 2.2 3.3 2.2 5.4V31c0 .4-.1.7-.4 1s-.6.4-1 .4-.7-.1-1-.4c-.3-.2-.5-.5-.5-.9zm-4.7-11c-.7 0-1.3.1-1.9.4s-1.1.6-1.5 1c-.4.4-.8.9-1 1.5-.2.6-.4 1.2-.4 1.8s.1 1.3.4 1.8c.2.6.6 1.1 1 1.5.4.4.9.8 1.5 1s1.2.4 1.9.4 1.3-.1 1.9-.4c.6-.3 1.1-.6 1.5-1s.8-.9 1-1.5c.2-.6.4-1.2.4-1.8s-.1-1.3-.4-1.8c-.2-.6-.6-1.1-1-1.5-.4-.4-.9-.8-1.5-1-.7-.2-1.3-.4-1.9-.4zM114 31.1V12.2c0-.4.1-.7.4-1s.6-.4 1-.4.7.1 1 .4.4.6.4 1v10.6l8.1-5.3c.2-.1.5-.2.8-.2.2 0 .4 0 .6.1.2.1.3.2.4.3s.2.3.3.5c.1.2.1.4.1.5 0 .5-.2.9-.5 1.1l-5.7 3.7 5.8 6.6c.3.3.4.6.4 1 0 .2 0 .4-.1.5-.1.2-.2.3-.3.5-.1.1-.3.2-.4.3-.2.1-.4.1-.6.1-.4 0-.7-.1-.9-.4l-6.3-7-1.7 1.1v4.9c0 .4-.1.7-.4 1s-.6.4-1 .4-.7-.1-1-.4-.4-.6-.4-1zM140.8 28.2c.4 0 .7.1 1 .4.3.3.4.6.4 1s-.1.7-.4 1c-1.4 1.2-3.1 1.8-5 1.8-2.1 0-3.9-.7-5.4-2.2-1.5-1.5-2.2-3.3-2.2-5.4 0-2.1.7-3.9 2.2-5.4 1.5-1.5 3.3-2.2 5.4-2.2 2.1 0 3.9.7 5.4 2.2.7.7 1.3 1.5 1.7 2.4.4.9.6 1.9.6 2.9 0 .4-.1.7-.4 1-.3.3-.6.4-1 .4h-10.7c.2.5.4 1 .7 1.4.3.4.6.8 1.1 1.1.4.3.8.5 1.3.7.5.2 1 .2 1.5.2.6 0 1.1-.1 1.6-.3.5-.2 1-.5 1.4-.8.1 0 .4-.2.8-.2zm.6-4.7c-.2-.5-.4-1-.7-1.4-.3-.4-.7-.8-1.1-1.1-.4-.3-.8-.5-1.3-.7-.5-.2-1-.2-1.5-.2s-1 .1-1.5.2-.9.4-1.3.7c-.4.3-.8.6-1.1 1.1-.3.4-.5.9-.7 1.4h9.2z"/></g><g><path class="st1" d="M78 46.2c.1 0 .2 0 .3.1.1.1.1.2.1.3 0 .1 0 .2-.1.3-.3.3-.7.5-1.1.7-.4.2-.8.2-1.3.2-1 0-1.9-.4-2.6-1.1s-1.1-1.6-1.1-2.6.4-1.9 1.1-2.6c.7-.7 1.6-1.1 2.6-1.1.4 0 .9.1 1.3.2.4.2.8.4 1.1.7l.1.1v.2c0 .1 0 .2-.1.3-.1.1-.1.1-.3.1-.1 0-.2 0-.3-.1-.5-.5-1.2-.7-1.9-.7-.8 0-1.5.3-2 .8-.6.6-.8 1.2-.8 2s.3 1.5.8 2c.6.6 1.2.8 2 .8.3 0 .7-.1 1-.2.3-.1.6-.3.9-.5.1.1.2.1.3.1zM87.6 44.1c0 1-.4 1.9-1.1 2.6-.7.7-1.6 1.1-2.6 1.1s-1.9-.4-2.6-1.1-1.1-1.6-1.1-2.6.4-1.9 1.1-2.6c.7-.7 1.6-1.1 2.6-1.1s1.9.4 2.6 1.1c.7.7 1.1 1.6 1.1 2.6zm-3.7-2.9c-.8 0-1.5.3-2 .8-.6.6-.8 1.2-.8 2s.3 1.5.8 2c.6.6 1.2.8 2 .8s1.5-.3 2-.8c.6-.6.8-1.2.8-2s-.3-1.5-.8-2-1.2-.8-2-.8zM90.1 47.4c0 .1 0 .2-.1.3-.1.1-.2.1-.3.1s-.2 0-.3-.1c-.1-.1-.1-.2-.1-.3v-6.5c0-.1 0-.2.1-.3.1-.1.2-.1.3-.1s.2 0 .3.1c.1.1.1.2.1.3v.4c.7-.6 1.3-.8 2-.8.8 0 1.5.3 2 .8.1.1.3.3.4.5.1-.2.3-.4.4-.5.6-.6 1.2-.8 2-.8s1.5.3 2 .8c.6.6.8 1.2.8 2v4.1c0 .1 0 .2-.1.3s-.2.1-.3.1-.2 0-.3-.1c-.1-.1-.1-.2-.1-.3v-4.1c0-.6-.2-1-.6-1.4-.4-.4-.9-.6-1.4-.6-.6 0-1 .2-1.4.6-.4.4-.6.9-.6 1.4v4.1c0 .1 0 .2-.1.3-.1.1-.2.1-.3.1s-.2 0-.3-.1c-.1-.1-.1-.2-.1-.3v-4.1c0-.6-.2-1-.6-1.4-.4-.4-.9-.6-1.4-.6-.6 0-1 .2-1.4.6-.4.4-.6.9-.6 1.4v4.1zM102.3 47.4c0 .1 0 .2-.1.3-.1.1-.2.1-.3.1s-.2 0-.3-.1c-.1-.1-.1-.2-.1-.3v-6.5c0-.1 0-.2.1-.3.1-.1.2-.1.3-.1s.2 0 .3.1c.1.1.1.2.1.3v.4c.7-.6 1.3-.8 2-.8.8 0 1.5.3 2 .8.1.1.3.3.4.5.1-.2.3-.4.4-.5.6-.6 1.2-.8 2-.8s1.5.3 2 .8c.6.6.8 1.2.8 2v4.1c0 .1 0 .2-.1.3s-.2.1-.3.1-.2 0-.3-.1c-.1-.1-.1-.2-.1-.3v-4.1c0-.6-.2-1-.6-1.4-.4-.4-.9-.6-1.4-.6-.6 0-1 .2-1.4.6-.4.4-.6.9-.6 1.4v4.1c0 .1 0 .2-.1.3-.1.1-.2.1-.3.1s-.2 0-.3-.1c-.1-.1-.1-.2-.1-.3v-4.1c0-.6-.2-1-.6-1.4-.4-.4-.9-.6-1.4-.6-.6 0-1 .2-1.4.6-.4.4-.6.9-.6 1.4v4.1zM119.4 46.2c.1 0 .2 0 .3.1.1.1.1.2.1.3 0 .1 0 .2-.1.3-.7.6-1.5.9-2.4.9-1 0-1.9-.4-2.6-1.1s-1.1-1.6-1.1-2.6.4-1.9 1.1-2.6c.7-.7 1.6-1.1 2.6-1.1s1.9.4 2.6 1.1c.7.7 1.1 1.6 1.1 2.6 0 .1 0 .2-.1.3-.1.1-.2.1-.3.1h-6.1c.1.7.4 1.2.8 1.6.6.6 1.2.8 2 .8.4 0 .7-.1 1-.2.3-.1.6-.3.8-.5h.3zm.8-2.5c-.1-.6-.4-1.2-.8-1.6-.6-.6-1.2-.8-2-.8s-1.5.3-2 .8c-.4.4-.7 1-.8 1.6h5.6zM122.7 40.8c0-.1 0-.2.1-.3.1-.1.2-.1.3-.1.1 0 .2 0 .3.1.1.1.1.2.1.3v.9c.9-.9 1.8-1.3 2.9-1.3.5 0 1 .1 1.4.3.1 0 .1.1.2.1.1.1.1.2.1.3 0 .1 0 .2-.1.3-.1.1-.2.1-.3.1h-.2c-.3-.1-.7-.2-1.1-.2-.8 0-1.5.3-2 .8-.6.6-.8 1.2-.8 2v3.3c0 .1 0 .2-.1.3-.1.1-.2.1-.3.1-.1 0-.2 0-.3-.1-.1-.1-.1-.2-.1-.3v-6.6zM135.4 46.2c.1 0 .2 0 .3.1.1.1.1.2.1.3 0 .1 0 .2-.1.3-.3.3-.7.5-1.1.7-.4.2-.8.2-1.3.2-1 0-1.9-.4-2.6-1.1s-1.1-1.6-1.1-2.6.4-1.9 1.1-2.6c.7-.7 1.6-1.1 2.6-1.1.4 0 .9.1 1.3.2.4.2.8.4 1.1.7l.1.1v.2c0 .1 0 .2-.1.3-.1.1-.2.1-.3.1-.1 0-.2 0-.3-.1-.5-.5-1.2-.7-1.9-.7-.8 0-1.5.3-2 .8-.6.6-.8 1.2-.8 2s.3 1.5.8 2c.6.6 1.2.8 2 .8.3 0 .7-.1 1-.2.3-.1.6-.3.9-.5.2.1.2.1.3.1zM143.4 46.2c.1 0 .2 0 .3.1.1.1.1.2.1.3 0 .1 0 .2-.1.3-.7.6-1.5.9-2.4.9-1 0-1.9-.4-2.6-1.1s-1.1-1.6-1.1-2.6.4-1.9 1.1-2.6c.7-.7 1.6-1.1 2.6-1.1s1.9.4 2.6 1.1c.7.7 1.1 1.6 1.1 2.6 0 .1 0 .2-.1.3-.1.1-.2.1-.3.1h-6.1c.1.7.4 1.2.8 1.6.6.6 1.2.8 2 .8.4 0 .7-.1 1-.2.3-.1.6-.3.8-.5h.3zm.8-2.5c-.1-.6-.4-1.2-.8-1.6-.6-.6-1.2-.8-2-.8s-1.5.3-2 .8c-.4.4-.7 1-.8 1.6h5.6z"/></g><path class="st2" d="M60 10h2v40h-2z"/></svg>