<svg width="19" height="18" viewBox="0 0 19 18" version="1.1" xmlns="http://www.w3.org/2000/svg" xmlns:xlink="http://www.w3.org/1999/xlink">
<title>Vector</title>
<desc>Created using Figma</desc>
<g id="Canvas" transform="translate(-929 506)">
<g id="Vector">
<use xlink:href="#path0_fill" transform="translate(929.987 -506)" fill="#F2711C"/>
</g>
</g>
<defs>
<path id="path0_fill" d="M 3.62 7.79C 5.06 10.62 7.38 12.93 10.21 14.38L 12.41 12.18C 12.68 11.91 13.08 11.82 13.43 11.94C 14.55 12.31 15.76 12.51 17 12.51C 17.55 12.51 18 12.96 18 13.51L 18 17C 18 17.55 17.55 18 17 18C 7.61 18 0 10.39 0 1C 0 0.45 0.45 0 1 0L 4.5 0C 5.05 0 5.5 0.45 5.5 1C 5.5 2.25 5.7 3.45 6.07 4.57C 6.18 4.92 6.1 5.31 5.82 5.59L 3.62 7.79Z"/>
</defs>
</svg>
