<?xml version="1.0" encoding="utf-8"?>
<!-- Generator: Adobe Illustrator 19.0.1, SVG Export Plug-In . SVG Version: 6.00 Build 0)  -->
<svg version="1.1" id="Layer_1" xmlns="http://www.w3.org/2000/svg" xmlns:xlink="http://www.w3.org/1999/xlink" x="0px" y="0px"
	 viewBox="-223 25 490.1 490" style="enable-background:new -223 25 490.1 490;" xml:space="preserve">
<g>
	<g>
		<g>
			<path fill="#FFFFFF" d="M-42.2,494.6V320.3L-219.5,56.8c-7.2-8.3-4.1-31.1,16.9-31.8h449.2c12.2,0,27.7,14.4,16.9,31.8L86.2,320.3v108.2
				c0,6.4-3,12.4-8.1,16.3l-87.6,66.1C-14.5,516.5-39.6,520.2-42.2,494.6z M-164.2,65.8L-4.8,302.7c2.3,3.4,3.5,7.3,3.5,11.4v139.6
				l46.8-35.3V314.1c0-4.1,1.2-8,3.5-11.4L208.2,65.8H-164.2L-164.2,65.8z"/>
		</g>
	</g>
</g>
</svg>
