<svg width="22" height="22" viewBox="0 0 22 22" version="1.1" xmlns="http://www.w3.org/2000/svg" xmlns:xlink="http://www.w3.org/1999/xlink">
<title>Vector</title>
<desc>Created using Figma</desc>
<g id="Canvas" transform="translate(-1452 507)">
<g id="Vector">
<use xlink:href="#path0_fill" transform="translate(1452 -507)" fill="#F2711C"/>
</g>
</g>
<defs>
<path id="path0_fill" fill-rule="evenodd" d="M 16.4844 16.0653C 15.9953 16.7421 15.2772 17.2835 14.351 17.6687C 13.4352 18.0435 12.3321 18.2309 11.0728 18.2309C 9.56386 18.2309 8.30464 17.9707 7.31599 17.4501C 6.60833 17.0752 6.03595 16.5651 5.58846 15.9404C 5.14096 15.3053 4.91201 14.6805 4.91201 14.0663C 4.91201 13.6914 5.05771 13.3583 5.3491 13.0876C 5.63009 12.8273 6.00473 12.6919 6.44182 12.6919C 6.80606 12.6919 7.11826 12.796 7.36803 13.0043C 7.60738 13.2021 7.81552 13.5144 7.98202 13.8893C 8.16935 14.3057 8.36707 14.6597 8.58562 14.9408C 8.79375 15.2115 9.08514 15.4406 9.4702 15.6176C 9.84484 15.7946 10.3652 15.8883 10.9896 15.8883C 11.8638 15.8883 12.5714 15.7009 13.1022 15.3469C 13.6329 14.9929 13.8827 14.566 13.8827 14.0558C 13.8827 13.6498 13.7474 13.327 13.4768 13.0771C 13.1854 12.8168 12.8108 12.6086 12.3529 12.4733C 11.8742 12.3275 11.2289 12.1609 10.4276 12.0047C 9.33491 11.7757 8.40871 11.4946 7.68023 11.1926C 6.93094 10.8803 6.31693 10.443 5.87985 9.89115C 5.73415 9.71415 5.61968 9.51633 5.52602 9.30809C 5.31788 8.8708 5.2034 8.37104 5.2034 7.81921C 5.2034 7.03833 5.44277 6.33034 5.91107 5.72646C 6.37938 5.12257 7.06623 4.65405 7.9508 4.33128C 8.82498 4.00852 9.85525 3.85234 11.0312 3.85234C 11.9678 3.85234 12.79 3.96687 13.4768 4.17511C 14.1741 4.38334 14.7465 4.67487 15.2148 5.02887C 15.6727 5.38287 16.0161 5.75769 16.2346 6.16375C 16.4532 6.55939 16.5676 6.95504 16.5676 7.34027C 16.5676 7.70469 16.4219 8.04827 16.141 8.3398C 15.8496 8.63133 15.4853 8.77709 15.0587 8.77709C 14.6736 8.77709 14.3614 8.68339 14.1637 8.49598C 13.9659 8.31898 13.7682 8.05868 13.5393 7.67345C 13.2791 7.1841 12.9565 6.79886 12.6027 6.52816C 12.2488 6.26787 11.6556 6.13251 10.8439 6.13251C 10.0946 6.13251 9.4806 6.27828 9.02271 6.56981C 8.58562 6.85092 8.37748 7.17369 8.37748 7.55892C 8.37748 7.79839 8.43992 7.99621 8.58562 8.1628C 8.74172 8.3398 8.93945 8.50639 9.21003 8.63133C 9.4806 8.76668 9.772 8.88121 10.053 8.95409C 10.105 8.96451 10.1675 8.98533 10.2403 9.00615C 10.5421 9.07903 10.9584 9.18315 11.5099 9.30809C 12.3633 9.48509 13.1438 9.69333 13.8307 9.91197C 14.5279 10.1306 15.1315 10.4013 15.6206 10.7241C 16.1306 11.0469 16.5156 11.4529 16.807 11.9527C 17.088 12.4524 17.2337 13.0667 17.2337 13.7747C 17.2129 14.6077 16.9631 15.3781 16.4844 16.0653ZM 21.3548 13.3374C 21.5213 12.6294 21.5941 11.8798 21.5941 11.1197C 21.5941 10.8594 21.5837 10.5991 21.5629 10.3389C 21.157 4.98722 16.6301 0.770468 11.1041 0.770468C 10.4901 0.770468 9.89688 0.822527 9.31409 0.926644C 8.37748 0.343587 7.26395 3.17741e-07 6.07758 3.17741e-07C 2.71618 3.17741e-07 6.35181e-07 2.68623 6.35181e-07 6.00757C 6.35181e-07 7.11122 0.301798 8.15239 0.832546 9.03739C 0.749291 9.41221 0.697256 9.78703 0.666036 10.1827C 0.634816 10.495 0.624409 10.8074 0.624409 11.1197C 0.624409 16.8358 5.31788 21.469 11.1145 21.469C 11.7701 21.469 12.4153 21.4065 13.0397 21.292C 13.9035 21.7397 14.8817 22 15.912 22C 19.2734 22 22 19.3138 22 15.9924C 21.9792 15.045 21.7502 14.1391 21.3548 13.3374Z"/>
</defs>
</svg>
