<svg width="22" height="18" viewBox="0 0 22 18" version="1.1" xmlns="http://www.w3.org/2000/svg" xmlns:xlink="http://www.w3.org/1999/xlink">
<title>Vector</title>
<desc>Created using Figma</desc>
<g id="Canvas" transform="translate(-1343 505)">
<g id="Vector">
<use xlink:href="#path0_fill" transform="translate(1343 -505)" fill="#F2711C"/>
</g>
</g>
<defs>
<path id="path0_fill" d="M 20 0L 2 0C 0.9 0 0 0.9 0 2L 0 16C 0 17.1 0.9 18 2 18L 20 18C 21.1 18 22 17.1 22 16L 22 2C 22 0.9 21.1 0 20 0ZM 20 16L 2 16L 2 4L 11 10L 20 4L 20 16ZM 11 8L 2 2L 20 2L 11 8Z"/>
</defs>
</svg>
