<svg width="22" height="18" viewBox="0 0 22 18" version="1.1" xmlns="http://www.w3.org/2000/svg" xmlns:xlink="http://www.w3.org/1999/xlink">
<title>Vector</title>
<desc>Created using Figma</desc>
<g id="Canvas" transform="translate(-1560 504)">
<g id="Vector">
<use xlink:href="#path0_fill" transform="translate(1560 -504)" fill="#F2711C"/>
</g>
</g>
<defs>
<path id="path0_fill" d="M 21.0138 1.15048C 21.0138 1.65048 20.8138 2.25047 20.7138 2.75047C 19.7138 7.45047 18.8138 12.0505 17.8138 16.7505C 17.7138 17.0505 17.7138 17.2505 17.5138 17.5505C 17.3138 17.9505 16.9138 18.0505 16.5138 17.9505C 16.2138 17.8505 16.0138 17.7505 15.8138 17.5505C 14.3138 16.4505 12.9138 15.3505 11.4138 14.2505C 11.2138 14.1505 11.1138 14.1505 11.0138 14.2505C 10.3138 14.9505 9.61385 15.6505 8.81385 16.4505C 8.51385 16.7505 8.21385 16.8505 7.81385 16.8505C 7.51385 16.8505 7.41385 16.7505 7.31385 16.4505C 6.91385 15.0505 6.41384 13.5505 5.91384 12.1505C 5.71384 11.6505 5.61384 11.1505 5.41384 10.6505C 5.31384 10.4505 5.31385 10.3505 5.11385 10.3505C 3.71385 9.95048 2.21385 9.45047 0.813847 8.95047C 0.613847 8.85047 0.413847 8.85047 0.313847 8.75047C -0.0861531 8.45047 -0.0861592 8.15048 0.213841 7.85048C 0.413841 7.65048 0.713844 7.45048 1.01384 7.35048C 2.91384 6.55048 4.91385 5.85047 6.81385 5.05047C 11.0138 3.35047 15.2138 1.75047 19.4138 0.0504729L 19.5138 0.0504729C 20.4138 -0.149527 21.0138 0.250479 21.0138 1.15048ZM 7.91384 15.5505C 8.01384 15.5505 8.01384 15.4505 8.01384 15.4505C 8.11384 14.4505 8.21385 13.3505 8.31385 12.3505C 8.31385 12.0505 8.41385 11.8505 8.61385 11.7505C 11.3138 9.25047 14.1138 6.75048 16.8138 4.15048C 17.0138 3.95048 17.1138 3.85048 17.3138 3.65048C 17.4138 3.55048 17.5138 3.55048 17.4138 3.35048C 17.3138 3.25048 17.2139 3.25047 17.1138 3.25047C 16.9138 3.25047 16.7138 3.35047 16.5138 3.45047C 13.1138 5.65047 9.81384 7.75047 6.41384 9.95047C 6.21384 10.0505 6.21385 10.1505 6.31385 10.3505C 6.71385 11.6505 7.11384 12.9505 7.51384 14.1505C 7.61384 14.7505 7.71384 15.1505 7.91384 15.5505Z"/>
</defs>
</svg>
